<svg width="157" height="157" viewBox="0 0 157 157" fill="none" xmlns="http://www.w3.org/2000/svg">
<rect width="157" height="157" fill="white"/>
<path d="M98.1807 17C85.1251 17 68.2293 23.7182 55.1359 34.1159C39.5717 46.4758 31 62.2013 31 78.3954C31 87.0849 34.2503 94.3106 40.3993 99.2918C45.8866 103.737 53.532 106.185 61.9273 106.185C73.8147 106.185 87.256 100.355 96.7644 91.3416C93.9857 96.0378 91.8345 100.862 90.3445 105.75L90.0556 106.779L62.0191 107.803C55.9529 108.006 51.2657 109.514 48.0881 112.284C44.9115 115.053 43.3008 118.993 43.3008 123.994C43.3008 128.469 45.5366 132.247 49.7665 134.92C53.9904 137.589 60.0761 139 67.3655 139C75.2731 139 81.8083 137.697 87.3447 135.015C93.9654 131.809 99.033 126.58 102.416 119.467L108.87 119.176L111.495 105.777L106.98 106.156L115.727 75.6509L99.9062 74.1457L99.5198 74.593C95.9256 78.7563 90.4179 82.6895 84.0118 85.6684C77.4419 88.7236 70.6562 90.406 64.9053 90.406C54.0303 90.406 47.5378 85.6205 47.5378 77.6046C47.5378 68.2132 53.7262 57.0805 64.092 47.8251C74.6443 38.403 87.6298 32.778 98.8281 32.778C108.081 32.778 109.463 37.9087 109.463 40.967C109.463 49.733 102.672 54.6795 83.5132 59.8706L82.3376 60.1891L87.19 75.16L88.2099 74.9203C100.344 72.0701 109.214 68.2561 115.326 63.2606C122.508 57.3903 126 49.9255 126 40.44C126 25.7625 115.6 17 98.1807 17ZM83.0884 120.131C79.0303 123.843 73.3238 125.858 66.7181 125.858C61.991 125.858 59.8383 124.55 59.8383 123.335C59.8383 122.623 59.8383 120.956 65.3371 120.812L83.0884 120.131Z" fill="#9C41F7"/>
</svg>
