<svg xmlns="http://www.w3.org/2000/svg" version="1.1" xmlns:xlink="http://www.w3.org/1999/xlink" width="1000" height="1000"><g clip-path="url(#SvgjsClipPath1105)"><rect width="1000" height="1000" fill="#f3f3f3"></rect><g transform="matrix(1.2391247442369084,0,0,1.2391247442369084,99.99999999999994,241.13754749332801)"><svg xmlns="http://www.w3.org/2000/svg" version="1.1" xmlns:xlink="http://www.w3.org/1999/xlink" width="645.617" height="417.815"><svg id="b" data-name="Calque 2" xmlns="http://www.w3.org/2000/svg" width="645.617" height="417.815" viewBox="0 0 645.617 417.815">
  <g id="c" data-name="Calque 1">
    <path fill="#9C41F7" d="m387.44,195.542c36.352,9.275,75.074,11.303,112.448,5.467,35.909-5.607,74.547-17.42,104.117-39.194,1.491-1.098,2.96-2.226,4.404-3.385,25.037-20.104,37.208-45.669,37.208-78.154,0-50.266-36.253-80.276-96.976-80.276-45.51,0-104.407,23.008-150.049,58.617-21.273,16.597-38.78,34.972-52.227,54.516,1.855-12.427,2.393-25.644.725-39.113-3.121-25.207-17.735-48.837-38.139-61.67-17.857-11.232-38.724-13.706-58.758-6.962-24.575,8.272-42.871,30.854-45.526,56.193-1.604,15.305.988,38.187,22.448,60.282,13.628,14.032,30.909,23.686,42.723,29.727,1.945.995,3.902,1.979,5.877,2.955-17.968,33.028-47.175,62.362-82.458,82.767-18.919,10.942-43.124,18.892-51.561,10.487-6.803-6.778-9.997-20.21-7.948-33.423,3.645-23.514,15.1-46.028,27.229-69.864,4.906-9.644,9.98-19.616,14.583-29.802,7.442-16.469,22.927-50.74,7.992-81.089C170.833,7.775,140.431-4.728,111.265,3.89,69.635,16.188,46.541,54.222,31.26,79.389c-12.589,20.735-22.443,39.515-31.26,60.132l56.741,5.708h0c6.045-12.562,12.758-24.769,20.678-37.813,14.512-23.901,29.191-45.843,49.146-51.739,3.703-1.095,7.698.083,8.536,1.786,3.686,7.49-5.675,28.205-8.75,35.011-4.089,9.047-8.661,18.035-13.503,27.55-13.518,26.568-27.496,54.04-32.463,86.079-4.778,30.828,3.894,60.715,23.199,79.95,12.886,12.838,29.592,19.245,48.865,19.244,20.269-.001,43.376-7.09,67.843-21.24,39.06-22.59,72.277-54.295,95.08-90.455-.598,5.53-.914,11.086-.914,16.659,0,29.759,11.33,54.505,32.765,71.564,19.128,15.223,45.779,23.606,75.044,23.606,41.438,0,88.293-19.964,121.438-50.833-9.686,16.083-17.185,32.605-22.379,49.344l-1.007,3.524-97.732,3.507c-21.146.697-37.485,5.859-48.562,15.346-11.073,9.482-16.688,22.976-16.688,40.105,0,15.325,7.794,28.263,22.539,37.417,14.724,9.141,35.938,13.973,61.348,13.973,27.565,0,50.346-4.464,69.645-13.646,23.079-10.981,40.744-28.888,52.538-53.249l38.761-.996,9.149-45.888-32,1.298,30.488-104.471-55.148-5.155-1.347,1.532c-12.529,14.258-31.728,27.728-54.059,37.93-22.902,10.463-46.556,16.225-66.603,16.225-37.909,0-60.541-16.389-60.541-43.841,0-5.101.547-10.353,1.604-15.704,4.565,1.283,9.142,2.521,13.73,3.692Zm42.372-89.975c36.784-32.268,82.05-51.532,121.086-51.532,32.254,0,37.071,17.571,37.071,28.045,0,26.717-23.648,41.936-45.488,51.437-45.322,19.717-94.104,21.838-141.692,9.701-1.424-.363-2.845-.745-4.267-1.12,8.951-12.629,20.152-25.005,33.29-36.53Zm-136.569-2.664c-36.621-19.003-35.306-31.544-34.871-35.694.463-4.417,4.438-9.092,9.05-10.644,1.794-.604,3.479-.909,5.108-.909,2.626,0,5.108.793,7.671,2.404,6.811,4.284,12.155,13.364,13.299,22.597.854,6.891.748,14.389-.257,22.246Zm145.722,269.902c-16.478,0-23.982-4.478-23.982-8.638,0-2.438,0-8.147,19.168-8.641l61.88-2.334c-14.146,12.713-34.038,19.613-57.065,19.613Z" stroke-width="0"></path>
  </g>
</svg></svg></g></g><defs><clipPath id="SvgjsClipPath1105"><rect width="1000" height="1000" x="0" y="0" rx="0" ry="0"></rect></clipPath></defs></svg>