<svg width="157" height="157" viewBox="0 0 157 157" fill="none" xmlns="http://www.w3.org/2000/svg"><rect width="157" height="157" fill="white"/><path d="M33.6405 123L13 20H37.7686L49.3884 104.273H51.529L62.69 20H87L66.2067 123H33.6405Z" fill="black"/><path d="M63.1404 102.846C66.9913 105.965 71.7804 108.136 77.0755 109.27C74.6468 110.085 72.5306 111.245 70.7739 112.776C67.0795 115.996 65.3008 120.533 65.3008 125.994C65.3008 131.246 67.9696 135.623 72.6982 138.611C77.3566 141.554 83.8616 143 91.3655 143C99.4918 143 106.342 141.66 112.216 138.815L111.345 137.015L112.216 138.815C118.931 135.563 124.128 130.359 127.686 123.412L132.96 123.174L134.531 123.103L134.833 121.561L137.458 108.161L137.967 105.562L135.328 105.784L133.702 105.92L141.649 78.2021L142.313 75.8879L139.916 75.6599L127.106 74.4411C132.504 72.2847 136.981 69.7606 140.592 66.8092C148.251 60.5492 152 52.51 152 42.44C152 34.5943 149.199 28.1421 143.911 23.6865C138.668 19.2684 131.203 17 122.181 17C108.56 17 91.2386 23.9511 77.8921 34.5497L79.1359 36.1159L77.8921 34.5497C61.9701 47.1938 53 63.4529 53 80.3954C53 89.6208 56.4726 97.4445 63.1404 102.846ZM107.168 85.8549L108.012 87.6684L107.168 85.8549C100.796 88.8182 94.2995 90.406 88.9053 90.406C83.7265 90.406 79.8544 89.262 77.3301 87.4014C74.8803 85.5956 73.5378 83.0041 73.5378 79.6046C73.5378 71.0107 79.2771 60.377 89.4241 51.317L88.1004 49.8345L89.4241 51.317C99.7097 42.133 112.24 36.778 122.828 36.778C127.09 36.778 129.124 37.95 130.13 39.0653C131.172 40.2198 131.463 41.6986 131.463 42.967C131.463 44.8893 131.093 46.5122 130.333 47.957C129.568 49.4084 128.351 50.791 126.495 52.1428C122.72 54.8929 116.541 57.3523 106.99 59.9402L106.99 59.9402L105.815 60.2587L103.788 60.808L104.435 62.8058L109.287 77.7767L109.855 79.5283L111.648 79.107L112.667 78.8673C112.667 78.8673 112.667 78.8673 112.668 78.8673C115.509 78.1999 118.185 77.4778 120.701 76.6967C117.354 80.0864 112.634 83.3133 107.168 85.8549ZM112.534 106.833L101.875 107.222C106.377 105.603 110.772 103.369 114.813 100.648C113.941 102.693 113.18 104.756 112.534 106.833ZM99.3972 124.427C96.8211 125.36 93.9029 125.858 90.7181 125.858C88.5078 125.858 87.0809 125.548 86.2863 125.211C86.2841 125.21 86.2819 125.209 86.2798 125.208C86.8002 125.042 87.7455 124.855 89.3895 124.811L89.4016 124.811L89.4138 124.811L99.3972 124.427ZM85.7061 124.872C85.708 124.872 85.7195 124.882 85.735 124.905C85.712 124.884 85.7042 124.873 85.7061 124.872Z" fill="#9C41F7" stroke="white" stroke-width="4"/></svg>